<svg width="77" height="77" viewBox="0 0 77 77" fill="none" xmlns="http://www.w3.org/2000/svg">
<path d="M34.9531 38.4531V22.4531C34.9531 21.5249 34.5844 20.6346 33.928 19.9783C33.2716 19.3219 32.3814 18.9531 31.4531 18.9531L11.4531 18.9531C10.9935 18.9531 10.5384 19.0437 10.1137 19.2195C9.68909 19.3954 9.30326 19.6532 8.97825 19.9783C8.65325 20.3033 8.39544 20.6891 8.21955 21.1137C8.04366 21.5384 7.95313 21.9935 7.95312 22.4531L7.95312 38.4531C7.95312 38.9128 8.04365 39.3679 8.21955 39.7925C8.39544 40.2172 8.65324 40.603 8.97825 40.928C9.30325 41.253 9.68909 41.5108 10.1137 41.6867C10.5384 41.8626 10.9935 41.9531 11.4531 41.9531H31.4531C32.3814 41.9531 33.2716 41.5844 33.928 40.928C34.5844 40.2716 34.9531 39.3814 34.9531 38.4531ZM11.4531 38.9531C11.3205 38.9531 11.1933 38.9004 11.0996 38.8067C11.0058 38.7129 10.9531 38.5857 10.9531 38.4531L10.9531 22.4531C10.9531 22.3205 11.0058 22.1933 11.0996 22.0996C11.1933 22.0058 11.3205 21.9531 11.4531 21.9531L31.4531 21.9531C31.5857 21.9531 31.7129 22.0058 31.8067 22.0996C31.9004 22.1933 31.9531 22.3205 31.9531 22.4531V38.4531C31.9531 38.5857 31.9004 38.7129 31.8067 38.8067C31.7129 38.9004 31.5857 38.9531 31.4531 38.9531H11.4531Z" fill="#FFE416"/>
<path d="M34.9531 66.4531V50.4531C34.9531 49.5249 34.5844 48.6346 33.928 47.9783C33.2716 47.3219 32.3814 46.9531 31.4531 46.9531H11.4531C10.9935 46.9531 10.5384 47.0437 10.1137 47.2195C9.68909 47.3954 9.30326 47.6532 8.97825 47.9783C8.65325 48.3033 8.39544 48.6891 8.21955 49.1137C8.04366 49.5384 7.95313 49.9935 7.95313 50.4531L7.95312 66.4531C7.95312 66.9128 8.04366 67.3679 8.21955 67.7925C8.39544 68.2172 8.65325 68.603 8.97825 68.928C9.30326 69.253 9.68909 69.5108 10.1137 69.6867C10.5384 69.8626 10.9935 69.9531 11.4531 69.9531H31.4531C32.3814 69.9531 33.2716 69.5844 33.928 68.928C34.5844 68.2716 34.9531 67.3814 34.9531 66.4531ZM11.4531 66.9531C11.3205 66.9531 11.1933 66.9004 11.0996 66.8067C11.0058 66.7129 10.9531 66.5857 10.9531 66.4531L10.9531 50.4531C10.9531 50.3205 11.0058 50.1933 11.0996 50.0996C11.1933 50.0058 11.3205 49.9531 11.4531 49.9531H31.4531C31.5857 49.9531 31.7129 50.0058 31.8067 50.0996C31.9004 50.1933 31.9531 50.3205 31.9531 50.4531V66.4531C31.9531 66.5857 31.9004 66.7129 31.8067 66.8067C31.7129 66.9004 31.5857 66.9531 31.4531 66.9531H11.4531Z" fill="#FFE416"/>
<path d="M26.4834 58.3043L19.9209 65.3355C19.8514 65.4098 19.7596 65.4594 19.6594 65.4768C19.5592 65.4943 19.456 65.4787 19.3654 65.4324C19.2749 65.3861 19.2018 65.3116 19.1573 65.2201C19.1128 65.1287 19.0993 65.0252 19.1188 64.9254L19.9777 60.6287L16.601 59.3607C16.5285 59.3336 16.4638 59.2889 16.4127 59.2307C16.3617 59.1725 16.3259 59.1026 16.3085 59.0271C16.291 58.9517 16.2926 58.8731 16.313 58.7984C16.3333 58.7237 16.3719 58.6552 16.4252 58.599L22.9877 51.5678C23.0572 51.4936 23.149 51.444 23.2492 51.4265C23.3494 51.409 23.4526 51.4246 23.5431 51.4709C23.6337 51.5172 23.7067 51.5917 23.7512 51.6832C23.7957 51.7746 23.8093 51.8781 23.7898 51.9779L22.9285 56.2793L26.3053 57.5455C26.3773 57.5728 26.4414 57.6174 26.4921 57.6754C26.5427 57.7334 26.5783 57.803 26.5957 57.878C26.613 57.953 26.6117 58.0311 26.5917 58.1055C26.5717 58.1798 26.5337 58.2481 26.4811 58.3043H26.4834Z" fill="#FFE416"/>
<path d="M68.9531 38.4531V22.4531C68.9531 21.5249 68.5844 20.6346 67.928 19.9783C67.2716 19.3219 66.3814 18.9531 65.4531 18.9531H45.4531C44.9935 18.9531 44.5384 19.0437 44.1137 19.2195C43.6891 19.3954 43.3033 19.6532 42.9783 19.9783C42.6532 20.3033 42.3954 20.6891 42.2195 21.1137C42.0437 21.5384 41.9531 21.9935 41.9531 22.4531V38.4531C41.9531 38.9128 42.0437 39.3679 42.2195 39.7925C42.3954 40.2172 42.6532 40.603 42.9782 40.928C43.3033 41.253 43.6891 41.5108 44.1137 41.6867C44.5384 41.8626 44.9935 41.9531 45.4531 41.9531H65.4531C66.3814 41.9531 67.2716 41.5844 67.928 40.928C68.5844 40.2716 68.9531 39.3814 68.9531 38.4531ZM45.4531 38.9531C45.3205 38.9531 45.1933 38.9004 45.0996 38.8067C45.0058 38.7129 44.9531 38.5857 44.9531 38.4531V22.4531C44.9531 22.3205 45.0058 22.1933 45.0996 22.0996C45.1933 22.0058 45.3205 21.9531 45.4531 21.9531H65.4531C65.5857 21.9531 65.7129 22.0058 65.8067 22.0996C65.9004 22.1933 65.9531 22.3205 65.9531 22.4531V38.4531C65.9531 38.5857 65.9004 38.7129 65.8067 38.8067C65.7129 38.9004 65.5857 38.9531 65.4531 38.9531H45.4531Z" fill="#FFE416"/>
<path d="M63.7656 28.2266C63.7669 28.792 63.656 29.3521 63.4395 29.8744C63.2229 30.3967 62.9049 30.8709 62.5039 31.2695L55.8762 37.9952C55.8209 38.0513 55.7551 38.0959 55.6824 38.1263C55.6098 38.1567 55.5319 38.1724 55.4531 38.1724C55.3744 38.1724 55.2964 38.1567 55.2238 38.1263C55.1512 38.0959 55.0853 38.0513 55.0301 37.9952L48.4023 31.2695C47.5943 30.4625 47.14 29.3675 47.1393 28.2255C47.1386 27.0834 47.5916 25.9879 48.3986 25.1799C49.2057 24.3719 50.3007 23.9175 51.4427 23.9168C52.5847 23.9161 53.6803 24.3691 54.4883 25.1762L55.4531 26.0779L56.4246 25.1732C57.0276 24.5732 57.7949 24.1653 58.6295 24.001C59.4641 23.8367 60.3287 23.9234 61.1141 24.2501C61.8995 24.5767 62.5705 25.1288 63.0424 25.8365C63.5144 26.5442 63.766 27.3759 63.7656 28.2266Z" fill="#FFE416"/>
<path d="M68.9531 66.4531V50.4531C68.9531 49.5249 68.5844 48.6346 67.928 47.9783C67.2716 47.3219 66.3814 46.9531 65.4531 46.9531H45.4531C44.9935 46.9531 44.5384 47.0437 44.1137 47.2195C43.6891 47.3954 43.3033 47.6532 42.9783 47.9783C42.6532 48.3033 42.3954 48.6891 42.2195 49.1137C42.0437 49.5384 41.9531 49.9935 41.9531 50.4531V66.4531C41.9531 66.9128 42.0437 67.3679 42.2195 67.7925C42.3954 68.2172 42.6532 68.603 42.9782 68.928C43.3033 69.253 43.6891 69.5108 44.1137 69.6867C44.5384 69.8626 44.9935 69.9531 45.4531 69.9531H65.4531C66.3814 69.9531 67.2716 69.5844 67.928 68.928C68.5844 68.2716 68.9531 67.3814 68.9531 66.4531ZM45.4531 66.9531C45.3205 66.9531 45.1933 66.9004 45.0996 66.8067C45.0058 66.7129 44.9531 66.5857 44.9531 66.4531V50.4531C44.9531 50.3205 45.0058 50.1933 45.0996 50.0996C45.1933 50.0058 45.3205 49.9531 45.4531 49.9531H65.4531C65.5857 49.9531 65.7129 50.0058 65.8067 50.0996C65.9004 50.1933 65.9531 50.3205 65.9531 50.4531V66.4531C65.9531 66.5857 65.9004 66.7129 65.8067 66.8067C65.7129 66.9004 65.5857 66.9531 65.4531 66.9531H45.4531Z" fill="#FFE416"/>
<path d="M60.9531 57.8906C60.1496 57.8906 59.3642 58.1289 58.6961 58.5753C58.028 59.0217 57.5073 59.6562 57.1999 60.3985C56.8924 61.1408 56.8119 61.9576 56.9687 62.7457C57.1254 63.5337 57.5124 64.2576 58.0805 64.8257C58.6487 65.3939 59.3725 65.7808 60.1606 65.9376C60.9486 66.0943 61.7654 66.0139 62.5078 65.7064C63.2501 65.3989 63.8846 64.8782 64.331 64.2101C64.7774 63.5421 65.0156 62.7566 65.0156 61.9531C65.0145 60.876 64.5861 59.8434 63.8245 59.0818C63.0629 58.3201 62.0302 57.8918 60.9531 57.8906ZM61.8906 63.5156C61.9735 63.5156 62.053 63.5485 62.1116 63.6072C62.1702 63.6658 62.2031 63.7452 62.2031 63.8281C62.2031 63.911 62.1702 63.9905 62.1116 64.0491C62.053 64.1077 61.9735 64.1406 61.8906 64.1406H60.0156C59.9576 64.1406 59.9007 64.1245 59.8513 64.094C59.802 64.0634 59.7621 64.0198 59.7361 63.9679C59.7102 63.916 59.6992 63.8579 59.7044 63.8001C59.7096 63.7423 59.7308 63.6871 59.7656 63.6406L61.452 61.3922C61.5059 61.3202 61.5438 61.2375 61.5628 61.1495C61.5819 61.0616 61.5818 60.9706 61.5624 60.8828C61.5431 60.7949 61.505 60.7122 61.4508 60.6404C61.3966 60.5687 61.3275 60.5094 61.2483 60.4668C61.1691 60.4241 61.0816 60.3991 60.9919 60.3933C60.9021 60.3876 60.8121 60.4013 60.7281 60.4336C60.6441 60.4658 60.5681 60.5158 60.5052 60.5801C60.4423 60.6444 60.394 60.7216 60.3637 60.8063C60.336 60.8844 60.2784 60.9484 60.2036 60.9841C60.1288 61.0198 60.0428 61.0243 59.9646 60.9967C59.8865 60.969 59.8225 60.9114 59.7868 60.8366C59.7511 60.7618 59.7466 60.6758 59.7742 60.5977C59.8345 60.4279 59.9307 60.2733 60.0564 60.1442C60.182 60.0152 60.334 59.9148 60.502 59.8499C60.67 59.7851 60.8501 59.7573 61.0298 59.7685C61.2096 59.7797 61.3848 59.8296 61.5435 59.9148C61.7021 60 61.8405 60.1185 61.9491 60.2621C62.0578 60.4058 62.1341 60.5712 62.1728 60.7471C62.2116 60.9229 62.2119 61.1051 62.1737 61.2811C62.1355 61.4571 62.0597 61.6228 61.9516 61.7668L60.6406 63.5156H61.8906Z" fill="#FFE416"/>
<path d="M54.3125 58.4531C54.3125 59.4399 53.9207 61.1094 52.4531 61.1094C50.9855 61.1094 50.5938 59.4399 50.5938 58.4531C50.5938 57.4663 50.9855 55.7969 52.4531 55.7969C53.9207 55.7969 54.3125 57.4663 54.3125 58.4531ZM59.3594 58.4531C59.3594 59.8191 58.9543 61.1543 58.1955 62.29C57.4366 63.4258 56.358 64.3109 55.096 64.8337C53.8341 65.3564 52.4455 65.4931 51.1058 65.2267C49.7661 64.9602 48.5355 64.3024 47.5697 63.3366C46.6038 62.3707 45.9461 61.1401 45.6796 59.8005C45.4131 58.4608 45.5499 57.0722 46.0726 55.8102C46.5953 54.5483 47.4805 53.4697 48.6162 52.7108C49.7519 51.9519 51.0872 51.5469 52.4531 51.5469C54.2842 51.5488 56.0397 52.277 57.3344 53.5718C58.6292 54.8666 59.3574 56.6221 59.3594 58.4531ZM55.375 58.4531C55.375 57.5068 55.1386 56.625 54.7109 55.9702C54.1797 55.162 53.3981 54.7344 52.4531 54.7344C51.5082 54.7344 50.7266 55.162 50.1953 55.9702C49.7657 56.625 49.5312 57.5068 49.5312 58.4531C49.5312 59.3994 49.7677 60.2813 50.1953 60.9361C50.7266 61.7449 51.5062 62.1719 52.4531 62.1719C53.4001 62.1719 54.1797 61.7449 54.7109 60.9361C55.1386 60.2813 55.375 59.3994 55.375 58.4531Z" fill="#FFE416"/>
<path d="M71.8906 0H5.01562C3.6854 0 2.40965 0.52843 1.46904 1.46904C0.52843 2.40965 0 3.6854 0 5.01562V71.8906C0 73.2209 0.52843 74.4966 1.46904 75.4372C2.40965 76.3778 3.6854 76.9062 5.01562 76.9062H71.8906C73.2209 76.9062 74.4966 76.3778 75.4372 75.4372C76.3778 74.4966 76.9062 73.2209 76.9062 71.8906V5.01562C76.9062 3.6854 76.3778 2.40965 75.4372 1.46904C74.4966 0.52843 73.2209 0 71.8906 0ZM73.5625 71.8906C73.5625 72.334 73.3864 72.7593 73.0728 73.0728C72.7593 73.3864 72.334 73.5625 71.8906 73.5625H5.01562C4.57222 73.5625 4.14697 73.3864 3.83343 73.0728C3.51989 72.7593 3.34375 72.334 3.34375 71.8906V5.01562C3.34375 4.57222 3.51989 4.14697 3.83343 3.83343C4.14697 3.51989 4.57222 3.34375 5.01562 3.34375H71.8906C72.334 3.34375 72.7593 3.51989 73.0728 3.83343C73.3864 4.14697 73.5625 4.57222 73.5625 5.01562V71.8906Z" fill="white"/>
<path d="M9.71973 13.9531L12.1197 6.95312H13.2997L15.7497 13.9531H14.9097L14.3897 12.5031H11.0597L10.5597 13.9531H9.71973ZM12.7297 7.55312H12.6897C12.6897 7.63312 12.6664 7.72979 12.6197 7.84312L11.2697 11.8531H14.1797L12.7997 7.84312C12.7531 7.72979 12.7297 7.63312 12.7297 7.55312Z" fill="white"/>
<path d="M16.191 6.95312H21.471V7.65312H19.251V13.9531H18.411V7.65312H16.191V6.95312Z" fill="white"/>
<path d="M21.357 6.95312H26.637V7.65312H24.417V13.9531H23.577V7.65312H21.357V6.95312Z" fill="white"/>
<path d="M27.583 6.95312H31.283C31.443 6.95312 31.603 7.01979 31.763 7.15312L32.003 7.35312C32.163 7.48646 32.243 7.65312 32.243 7.85312V10.1931C32.243 10.3998 32.1597 10.5731 31.993 10.7131L31.743 10.9231C31.5963 11.0431 31.443 11.1031 31.283 11.1031H30.723L31.753 12.7031C31.8263 12.8165 31.8763 12.8898 31.903 12.9231C31.9363 12.9498 32.0063 12.9931 32.113 13.0531L32.223 13.1131C32.343 13.1798 32.413 13.2331 32.433 13.2731C32.453 13.3131 32.463 13.4098 32.463 13.5631V13.9531H32.213C32.093 13.9531 32.0097 13.9465 31.963 13.9331C31.923 13.9198 31.8497 13.8765 31.743 13.8031L31.553 13.6731C31.4063 13.5731 31.2863 13.4431 31.193 13.2831L29.863 11.1531H28.423V13.9531H27.583V6.95312ZM28.423 7.65312V10.4531H30.913C31.033 10.4531 31.1097 10.4498 31.143 10.4431C31.1763 10.4298 31.223 10.3998 31.283 10.3531C31.343 10.3065 31.3763 10.2698 31.383 10.2431C31.3963 10.2098 31.403 10.1431 31.403 10.0431V8.06312C31.403 7.96312 31.3963 7.89979 31.383 7.87312C31.3763 7.83979 31.343 7.79979 31.283 7.75313C31.223 7.70646 31.1763 7.67979 31.143 7.67312C31.1097 7.65979 31.033 7.65312 30.913 7.65312H28.423Z" fill="white"/>
<path d="M34.3115 6.95312H35.1515V13.9531H34.3115V6.95312Z" fill="white"/>
<path d="M40.9233 11.0631L40.7033 10.8831C40.6233 10.8165 40.5667 10.7798 40.5333 10.7731C40.5 10.7598 40.4333 10.7531 40.3333 10.7531H37.9933V13.2531H40.6033C40.7233 13.2531 40.8 13.2498 40.8333 13.2431C40.8667 13.2298 40.9133 13.1998 40.9733 13.1531C41.0333 13.1065 41.0667 13.0698 41.0733 13.0431C41.0867 13.0098 41.0933 12.9431 41.0933 12.8431V11.4231C41.0933 11.3165 41.0867 11.2465 41.0733 11.2131C41.06 11.1798 41.01 11.1298 40.9233 11.0631ZM37.9933 7.65312V10.0531H40.1633C40.2833 10.0531 40.36 10.0498 40.3933 10.0431C40.4333 10.0298 40.4867 9.99646 40.5533 9.94312L40.8133 9.73312C40.8933 9.66646 40.94 9.61646 40.9533 9.58313C40.9667 9.54979 40.9733 9.47646 40.9733 9.36312V8.06312C40.9733 7.96312 40.9667 7.89979 40.9533 7.87312C40.9467 7.83979 40.9133 7.79979 40.8533 7.75313C40.7933 7.70646 40.7467 7.67979 40.7133 7.67312C40.68 7.65979 40.6033 7.65312 40.4833 7.65312H37.9933ZM41.0333 10.2931V10.3431C41.1133 10.3431 41.2067 10.3865 41.3133 10.4731L41.7933 10.8631C41.8533 10.9165 41.89 10.9665 41.9033 11.0131C41.9233 11.0531 41.9333 11.1331 41.9333 11.2531V13.0531C41.9333 13.2531 41.8533 13.4198 41.6933 13.5531C41.64 13.5931 41.56 13.6598 41.4533 13.7531C41.2933 13.8865 41.1333 13.9531 40.9733 13.9531H37.1533V6.95312H40.8533C41.0133 6.95312 41.1733 7.01979 41.3333 7.15312L41.5733 7.35312C41.7333 7.48646 41.8133 7.65312 41.8133 7.85312V9.56312C41.8133 9.70312 41.76 9.81646 41.6533 9.90312L41.3133 10.1631C41.2067 10.2498 41.1133 10.2931 41.0333 10.2931Z" fill="white"/>
<path d="M48.1665 6.95312H49.0065V13.0531C49.0065 13.2531 48.9265 13.4198 48.7665 13.5531L48.5265 13.7531C48.3665 13.8865 48.2065 13.9531 48.0465 13.9531H44.6465C44.4865 13.9531 44.3265 13.8865 44.1665 13.7531L43.9265 13.5531C43.7665 13.4198 43.6865 13.2531 43.6865 13.0531V6.95312H44.5265V12.8431C44.5265 12.9431 44.5299 13.0098 44.5365 13.0431C44.5499 13.0698 44.5865 13.1065 44.6465 13.1531C44.7065 13.1998 44.7532 13.2298 44.7865 13.2431C44.8199 13.2498 44.8965 13.2531 45.0165 13.2531H47.6765C47.7965 13.2531 47.8732 13.2498 47.9065 13.2431C47.9399 13.2298 47.9865 13.1998 48.0465 13.1531C48.1065 13.1065 48.1399 13.0698 48.1465 13.0431C48.1599 13.0098 48.1665 12.9431 48.1665 12.8431V6.95312Z" fill="white"/>
<path d="M49.9507 6.95312H55.2307V7.65312H53.0107V13.9531H52.1707V7.65312H49.9507V6.95312Z" fill="white"/>
<path d="M60.6568 13.2531V13.9531H56.1768V6.95312H60.6568V7.65312H57.0168V10.0531H60.0968V10.7531H57.0168V13.2531H60.6568Z" fill="white"/>
<path d="M65.6072 10.7531H63.2172C63.0572 10.7531 62.8972 10.6865 62.7372 10.5531L62.4672 10.3231C62.3272 10.2098 62.2572 10.0765 62.2572 9.92312V7.85312C62.2572 7.65312 62.3372 7.48646 62.4972 7.35312L62.7372 7.15312C62.8972 7.01979 63.0572 6.95312 63.2172 6.95312H65.8772C66.0372 6.95312 66.1972 7.01979 66.3572 7.15312L66.5972 7.35312C66.7572 7.48646 66.8372 7.65312 66.8372 7.85312V8.25312H65.9972V8.06312C65.9972 7.96312 65.9906 7.89979 65.9772 7.87312C65.9706 7.83979 65.9372 7.79979 65.8772 7.75313C65.8172 7.70646 65.7706 7.67979 65.7372 7.67312C65.7039 7.65979 65.6272 7.65312 65.5072 7.65312H63.5872C63.4672 7.65312 63.3906 7.65979 63.3572 7.67312C63.3239 7.67979 63.2772 7.70646 63.2172 7.75313C63.1572 7.79979 63.1206 7.83979 63.1072 7.87312C63.1006 7.89979 63.0972 7.96312 63.0972 8.06312V9.64312C63.0972 9.74312 63.1006 9.80979 63.1072 9.84312C63.1206 9.86979 63.1572 9.90646 63.2172 9.95312C63.2772 9.99979 63.3239 10.0298 63.3572 10.0431C63.3906 10.0498 63.4672 10.0531 63.5872 10.0531H65.9772C66.1372 10.0531 66.2972 10.1198 66.4572 10.2531L66.6972 10.4531C66.8572 10.5865 66.9372 10.7531 66.9372 10.9531V13.0531C66.9372 13.2531 66.8572 13.4198 66.6972 13.5531L66.4572 13.7531C66.2972 13.8865 66.1372 13.9531 65.9772 13.9531H63.1172C62.9572 13.9531 62.7972 13.8865 62.6372 13.7531L62.3972 13.5531C62.2372 13.4198 62.1572 13.2531 62.1572 13.0531V12.6531H62.9972V12.8431C62.9972 12.9431 63.0006 13.0098 63.0072 13.0431C63.0206 13.0698 63.0572 13.1065 63.1172 13.1531C63.1772 13.1998 63.2239 13.2298 63.2572 13.2431C63.2906 13.2498 63.3672 13.2531 63.4872 13.2531H65.6072C65.7272 13.2531 65.8039 13.2498 65.8372 13.2431C65.8706 13.2298 65.9172 13.1998 65.9772 13.1531C66.0372 13.1065 66.0706 13.0698 66.0772 13.0431C66.0906 13.0098 66.0972 12.9431 66.0972 12.8431V11.1631C66.0972 11.0631 66.0906 10.9998 66.0772 10.9731C66.0706 10.9398 66.0372 10.8998 65.9772 10.8531C65.9172 10.8065 65.8706 10.7798 65.8372 10.7731C65.8039 10.7598 65.7272 10.7531 65.6072 10.7531Z" fill="white"/>
<path d="M9.21973 14.9531H67.6872V15.4531H9.21973V14.9531Z" fill="white"/>
</svg>
