<svg width="27" height="23" viewBox="0 0 27 23" fill="none" xmlns="http://www.w3.org/2000/svg">
<path d="M27 19.5L27 3.5C27 2.57174 26.6313 1.6815 25.9749 1.02513C25.3185 0.368749 24.4283 -1.12414e-07 23.5 -1.5299e-07L3.5 -1.02722e-06C3.04037 -1.04731e-06 2.58525 0.0905293 2.16061 0.266421C1.73597 0.442312 1.35013 0.70012 1.02513 1.02513C0.70012 1.35013 0.442314 1.73597 0.266422 2.16061C0.0905307 2.58525 -1.32899e-07 3.04037 -1.5299e-07 3.5L-8.52372e-07 19.5C-8.72463e-07 19.9596 0.0905299 20.4148 0.266421 20.8394C0.442313 21.264 0.70012 21.6499 1.02512 21.9749C1.35013 22.2999 1.73597 22.5577 2.16061 22.7336C2.58525 22.9095 3.04037 23 3.5 23L23.5 23C24.4283 23 25.3185 22.6313 25.9749 21.9749C26.6313 21.3185 27 20.4283 27 19.5ZM3.5 20C3.36739 20 3.24021 19.9473 3.14645 19.8536C3.05268 19.7598 3 19.6326 3 19.5L3 3.5C3 3.36739 3.05268 3.24021 3.14645 3.14645C3.24021 3.05268 3.36739 3 3.5 3L23.5 3C23.6326 3 23.7598 3.05268 23.8536 3.14645C23.9473 3.24021 24 3.36739 24 3.5L24 19.5C24 19.6326 23.9473 19.7598 23.8536 19.8536C23.7598 19.9473 23.6326 20 23.5 20L3.5 20Z" fill="#FFE416"/>
</svg>
