<svg width="27" height="23" viewBox="0 0 27 23" fill="none" xmlns="http://www.w3.org/2000/svg">
<path d="M27 19.5V3.5C27 2.57174 26.6313 1.6815 25.9749 1.02513C25.3185 0.36875 24.4283 9.14803e-07 23.5 8.74228e-07L3.5 0C3.04037 -2.00909e-08 2.58525 0.0905303 2.16061 0.266422C1.73597 0.442313 1.35013 0.700121 1.02513 1.02513C0.700121 1.35013 0.442314 1.73597 0.266423 2.16061C0.0905315 2.58525 7.19474e-07 3.04037 6.99383e-07 3.5L0 19.5C-2.009e-08 19.9596 0.0905308 20.4148 0.266422 20.8394C0.442314 21.264 0.70012 21.6499 1.02513 21.9749C1.35013 22.2999 1.73597 22.5577 2.16061 22.7336C2.58525 22.9095 3.04037 23 3.5 23H23.5C24.4283 23 25.3185 22.6313 25.9749 21.9749C26.6313 21.3185 27 20.4283 27 19.5ZM3.5 20C3.36739 20 3.24021 19.9473 3.14645 19.8536C3.05268 19.7598 3 19.6326 3 19.5L3 3.5C3 3.36739 3.05268 3.24021 3.14645 3.14645C3.24022 3.05268 3.36739 3 3.5 3L23.5 3C23.6326 3 23.7598 3.05268 23.8536 3.14645C23.9473 3.24022 24 3.36739 24 3.5V19.5C24 19.6326 23.9473 19.7598 23.8536 19.8536C23.7598 19.9473 23.6326 20 23.5 20H3.5Z" fill="#FFE416"/>
<path d="M21.8125 9.27344C21.8138 9.83887 21.7029 10.3989 21.4863 10.9213C21.2698 11.4436 20.9518 11.9178 20.5508 12.3164L13.923 19.0421C13.8678 19.0982 13.8019 19.1428 13.7293 19.1732C13.6567 19.2036 13.5787 19.2192 13.5 19.2192C13.4213 19.2192 13.3433 19.2036 13.2707 19.1732C13.1981 19.1428 13.1322 19.0982 13.077 19.0421L6.44922 12.3164C5.64119 11.5094 5.18685 10.4144 5.18616 9.27235C5.18546 8.13032 5.63846 7.03479 6.44551 6.22676C7.25255 5.41873 8.34753 4.96439 9.48956 4.9637C10.6316 4.963 11.7271 5.416 12.5352 6.22305L13.5 7.12481L14.4715 6.22008C15.0745 5.62009 15.8417 5.21219 16.6764 5.04789C17.511 4.88359 18.3756 4.97025 19.161 5.29693C19.9464 5.6236 20.6174 6.17566 21.0893 6.88339C21.5612 7.59112 21.8129 8.4228 21.8125 9.27344Z" fill="#FFE416"/>
</svg>
