<svg width="27" height="23" viewBox="0 0 27 23" fill="none" xmlns="http://www.w3.org/2000/svg">
<path d="M27 19.5V3.5C27 2.57174 26.6313 1.6815 25.9749 1.02513C25.3185 0.36875 24.4283 9.14803e-07 23.5 8.74228e-07L3.5 0C3.04037 -2.00909e-08 2.58525 0.0905303 2.16061 0.266422C1.73597 0.442313 1.35013 0.700121 1.02513 1.02513C0.700121 1.35013 0.442314 1.73597 0.266423 2.16061C0.0905315 2.58525 7.19473e-07 3.04037 6.99382e-07 3.5L0 19.5C-2.00909e-08 19.9596 0.0905308 20.4148 0.266422 20.8394C0.442314 21.264 0.70012 21.6499 1.02513 21.9749C1.35013 22.2999 1.73597 22.5577 2.16061 22.7336C2.58525 22.9095 3.04037 23 3.5 23H23.5C24.4283 23 25.3185 22.6313 25.9749 21.9749C26.6313 21.3185 27 20.4283 27 19.5ZM3.5 20C3.36739 20 3.24021 19.9473 3.14645 19.8536C3.05268 19.7598 3 19.6326 3 19.5L3 3.5C3 3.36739 3.05268 3.24021 3.14645 3.14645C3.24022 3.05268 3.36739 3 3.5 3L23.5 3C23.6326 3 23.7598 3.05268 23.8536 3.14645C23.9473 3.24022 24 3.36739 24 3.5V19.5C24 19.6326 23.9473 19.7598 23.8536 19.8536C23.7598 19.9473 23.6326 20 23.5 20H3.5Z" fill="#FFE416"/>
<path d="M19 10.9375C18.1965 10.9375 17.4111 11.1758 16.743 11.6222C16.0749 12.0685 15.5542 12.703 15.2467 13.4453C14.9393 14.1877 14.8588 15.0045 15.0156 15.7926C15.1723 16.5806 15.5592 17.3045 16.1274 17.8726C16.6955 18.4408 17.4194 18.8277 18.2074 18.9844C18.9955 19.1412 19.8123 19.0607 20.5547 18.7533C21.297 18.4458 21.9315 17.9251 22.3778 17.257C22.8242 16.5889 23.0625 15.8035 23.0625 15C23.0614 13.9229 22.633 12.8903 21.8714 12.1286C21.1097 11.367 20.0771 10.9386 19 10.9375ZM19.9375 16.5625C20.0204 16.5625 20.0999 16.5954 20.1585 16.654C20.2171 16.7126 20.25 16.7921 20.25 16.875C20.25 16.9579 20.2171 17.0374 20.1585 17.096C20.0999 17.1546 20.0204 17.1875 19.9375 17.1875H18.0625C18.0045 17.1875 17.9476 17.1713 17.8982 17.1408C17.8488 17.1103 17.8089 17.0667 17.783 17.0148C17.757 16.9628 17.7461 16.9047 17.7513 16.8469C17.7565 16.7891 17.7777 16.7339 17.8125 16.6875L19.4988 14.4391C19.5528 14.3671 19.5906 14.2843 19.6097 14.1964C19.6288 14.1085 19.6286 14.0175 19.6093 13.9296C19.59 13.8418 19.5519 13.7591 19.4977 13.6873C19.4435 13.6155 19.3744 13.5563 19.2952 13.5136C19.216 13.471 19.1285 13.4459 19.0387 13.4402C18.9489 13.4345 18.859 13.4482 18.775 13.4804C18.691 13.5127 18.615 13.5626 18.5521 13.627C18.4892 13.6913 18.4409 13.7684 18.4105 13.8531C18.3829 13.9313 18.3253 13.9953 18.2505 14.031C18.1756 14.0667 18.0897 14.0712 18.0115 14.0436C17.9334 14.0159 17.8694 13.9583 17.8337 13.8835C17.798 13.8087 17.7934 13.7227 17.8211 13.6445C17.8814 13.4748 17.9776 13.3201 18.1032 13.1911C18.2289 13.062 18.3809 12.9616 18.5489 12.8968C18.7169 12.8319 18.897 12.8042 19.0767 12.8154C19.2565 12.8266 19.4317 12.8765 19.5903 12.9617C19.749 13.0469 19.8874 13.1653 19.996 13.309C20.1046 13.4526 20.1809 13.6181 20.2197 13.7939C20.2585 13.9698 20.2588 14.152 20.2206 14.328C20.1824 14.504 20.1066 14.6697 19.9984 14.8137L18.6875 16.5625H19.9375Z" fill="#FFE416"/>
<path d="M12.3594 11.5C12.3594 12.4868 11.9676 14.1563 10.5 14.1563C9.03242 14.1563 8.64063 12.4868 8.64063 11.5C8.64063 10.5132 9.03242 8.84375 10.5 8.84375C11.9676 8.84375 12.3594 10.5132 12.3594 11.5ZM17.4062 11.5C17.4062 12.8659 17.0012 14.2012 16.2423 15.3369C15.4835 16.4726 14.4049 17.3578 13.1429 17.8805C11.881 18.4033 10.4923 18.54 9.15266 18.2735C7.81298 18.0071 6.5824 17.3493 5.61654 16.3835C4.65069 15.4176 3.99293 14.187 3.72645 12.8473C3.45997 11.5077 3.59674 10.119 4.11946 8.85709C4.64218 7.59514 5.52737 6.51653 6.66309 5.75766C7.79882 4.9988 9.13407 4.59375 10.5 4.59375C12.3311 4.59568 14.0866 5.32393 15.3813 6.61868C16.6761 7.91343 17.4043 9.66894 17.4062 11.5ZM13.4219 11.5C13.4219 10.5537 13.1855 9.67184 12.7578 9.01707C12.2266 8.20891 11.445 7.78125 10.5 7.78125C9.55504 7.78125 8.77344 8.20891 8.24219 9.01707C7.81254 9.67184 7.57813 10.5537 7.57813 11.5C7.57813 12.4463 7.81453 13.3282 8.24219 13.9829C8.77344 14.7918 9.55305 15.2188 10.5 15.2188C11.447 15.2188 12.2266 14.7918 12.7578 13.9829C13.1855 13.3282 13.4219 12.4463 13.4219 11.5Z" fill="#FFE416"/>
</svg>
