<svg width="27" height="23" viewBox="0 0 27 23" fill="none" xmlns="http://www.w3.org/2000/svg">
<path d="M27 19.5V3.5C27 2.57174 26.6313 1.6815 25.9749 1.02513C25.3185 0.36875 24.4283 9.14803e-07 23.5 8.74228e-07L3.5 0C3.04037 -2.00909e-08 2.58525 0.0905303 2.16061 0.266422C1.73597 0.442313 1.35013 0.700121 1.02513 1.02513C0.700121 1.35013 0.442314 1.73597 0.266423 2.16061C0.0905315 2.58525 7.19474e-07 3.04037 6.99383e-07 3.5L0 19.5C-2.009e-08 19.9596 0.0905308 20.4148 0.266422 20.8394C0.442314 21.264 0.70012 21.6499 1.02513 21.9749C1.35013 22.2999 1.73597 22.5577 2.16061 22.7336C2.58525 22.9095 3.04037 23 3.5 23H23.5C24.4283 23 25.3185 22.6313 25.9749 21.9749C26.6313 21.3185 27 20.4283 27 19.5ZM3.5 20C3.36739 20 3.24021 19.9473 3.14645 19.8536C3.05268 19.7598 3 19.6326 3 19.5L3 3.5C3 3.36739 3.05268 3.24021 3.14645 3.14645C3.24022 3.05268 3.36739 3 3.5 3L23.5 3C23.6326 3 23.7598 3.05268 23.8536 3.14645C23.9473 3.24022 24 3.36739 24 3.5V19.5C24 19.6326 23.9473 19.7598 23.8536 19.8536C23.7598 19.9473 23.6326 20 23.5 20H3.5Z" fill="#FFE416"/>
<path d="M18.5303 11.3512L11.9678 18.3824C11.8982 18.4566 11.8064 18.5062 11.7062 18.5237C11.606 18.5412 11.5029 18.5256 11.4123 18.4793C11.3218 18.433 11.2487 18.3585 11.2042 18.267C11.1597 18.1755 11.1462 18.0721 11.1656 17.9723L12.0246 13.6756L8.64785 12.4076C8.57533 12.3805 8.51066 12.3358 8.45962 12.2776C8.40857 12.2194 8.37274 12.1494 8.35533 12.074C8.33792 11.9985 8.33947 11.92 8.35984 11.8453C8.38021 11.7706 8.41877 11.7021 8.47207 11.6459L15.0346 4.61465C15.1041 4.54043 15.1959 4.49085 15.2961 4.47338C15.3963 4.45591 15.4995 4.4715 15.59 4.51781C15.6806 4.56411 15.7536 4.63861 15.7981 4.73007C15.8426 4.82152 15.8562 4.92497 15.8367 5.02481L14.9754 9.32617L18.3521 10.5924C18.4241 10.6197 18.4883 10.6643 18.5389 10.7223C18.5896 10.7803 18.6252 10.8499 18.6425 10.9249C18.6599 10.9999 18.6586 11.078 18.6386 11.1524C18.6186 11.2267 18.5806 11.295 18.5279 11.3512H18.5303Z" fill="#FFE416"/>
</svg>
